/* XPM */
static char *e3ae7baddd114ae2b7d246926c46966eNKv4XZ7XuFBKasoL[] = {
/* columns rows colors chars-per-pixel */
"28 28 228 2 ",
"   c #010402",
".  c #000B00",
"X  c #050409",
"o  c #08030A",
"O  c #001300",
"+  c #011C00",
"@  c #091B02",
"#  c #0C1002",
"$  c #10100E",
"%  c #181B10",
"&  c #002500",
"*  c #0A2400",
"=  c #002B00",
"-  c #0A2900",
";  c #1C2B0A",
":  c #132A0E",
">  c #013600",
",  c #033B00",
"<  c #0E3900",
"1  c #173808",
"2  c #1B3711",
"3  c #243B0C",
"4  c #24281B",
"5  c #20391B",
"6  c #104D00",
"7  c #155A00",
"8  c #274C05",
"9  c #225D00",
"0  c #224414",
"q  c #2A4B1E",
"w  c #3B4D13",
"e  c #2C5317",
"r  c #345119",
"t  c #3B5015",
"y  c #1D6001",
"u  c #1B7400",
"i  c #296900",
"p  c #346200",
"a  c #2E7C0E",
"s  c #337400",
"d  c #326D1B",
"f  c #2E4B27",
"g  c #355329",
"h  c #3E5B32",
"j  c #335127",
"k  c #3C612D",
"l  c #4F420E",
"z  c #4F5D00",
"x  c #5D4B1A",
"c  c #5A591E",
"v  c #64531C",
"b  c #5D6710",
"n  c #4C7B15",
"m  c #43532E",
"M  c #5A562C",
"N  c #4E5D36",
"B  c #644D29",
"V  c #694C24",
"C  c #64522B",
"Z  c #6C542B",
"A  c #675A23",
"S  c #635D34",
"D  c #675B36",
"F  c #456726",
"G  c #4C7E29",
"H  c #4A6936",
"J  c #5C6A37",
"K  c #536A3D",
"L  c #497D3D",
"P  c #527E3B",
"I  c #5A7138",
"U  c #656A2A",
"Y  c #68612C",
"T  c #637D2A",
"R  c #656935",
"E  c #667431",
"W  c #6B7A37",
"Q  c #496E42",
"!  c #506B48",
"~  c #5B7D44",
"^  c #577947",
"/  c #627D43",
"(  c #6D7943",
")  c #6B7A46",
"_  c #727849",
"`  c #36860B",
"'  c #3E910C",
"]  c #3B9B05",
"[  c #3D9412",
"{  c #388819",
"}  c #3FA30F",
"|  c #498F0B",
" . c #45940D",
".. c #469806",
"X. c #519C0B",
"o. c #4A8814",
"O. c #4C951C",
"+. c #469818",
"@. c #529514",
"#. c #629306",
"$. c #43A40B",
"%. c #42AA0D",
"&. c #4DAB13",
"*. c #4EAA19",
"=. c #4CB811",
"-. c #58B915",
";. c #52AB05",
":. c #60B900",
">. c #4E862C",
",. c #4B8A27",
"<. c #538C2C",
"1. c #58892B",
"2. c #4D9121",
"3. c #4D9924",
"4. c #419324",
"5. c #539224",
"6. c #549628",
"7. c #4F853A",
"8. c #4C8937",
"9. c #538533",
"0. c #5A8534",
"q. c #548C34",
"w. c #54843C",
"e. c #5B843C",
"r. c #558A3B",
"t. c #5B8A3A",
"y. c #5C8C36",
"u. c #4D9433",
"i. c #529233",
"p. c #5C9334",
"a. c #559A33",
"s. c #58933C",
"d. c #64853C",
"f. c #6C833A",
"g. c #618C3C",
"h. c #728A3E",
"j. c #619039",
"k. c #639137",
"l. c #52B920",
"z. c #56A82C",
"x. c #61A52C",
"c. c #68B93A",
"v. c #5AC819",
"b. c #64CC1D",
"n. c #65D71B",
"m. c #76D81B",
"M. c #55FC02",
"N. c #5CFD03",
"B. c #5EF50C",
"V. c #5CFD0B",
"C. c #59F503",
"Z. c #5DFC12",
"A. c #5EF317",
"S. c #62FD05",
"D. c #63F50B",
"F. c #63FC0B",
"G. c #67FC08",
"H. c #66EE1A",
"J. c #69E91B",
"K. c #77EB1A",
"L. c #64F314",
"P. c #6BF615",
"I. c #63FC13",
"U. c #66F31C",
"Y. c #6CF41B",
"T. c #69FA18",
"R. c #71F41A",
"E. c #79E80F",
"W. c #69C829",
"Q. c #65D42B",
"!. c #67C733",
"~. c #6FD632",
"^. c #70D031",
"/. c #78CE39",
"(. c #6CEE21",
"). c #6FE62D",
"_. c #69E826",
"`. c #7CEF2B",
"'. c #76EC28",
"]. c #6DF522",
"[. c #6AF824",
"{. c #71F424",
"}. c #75F42A",
"|. c #6EE430",
" X c #77EA34",
".X c #75FA31",
"XX c #5C8445",
"oX c #558A41",
"OX c #5B8B43",
"+X c #5D864B",
"@X c #548B49",
"#X c #5E8C4B",
"$X c #538141",
"%X c #589047",
"&X c #628243",
"*X c #628B44",
"=X c #63844A",
"-X c #638D4C",
";X c #6A894B",
":X c #6A8646",
">X c #649042",
",X c #64924D",
"<X c #639840",
"1X c #628B52",
"2X c #688858",
"3X c #758B55",
"4X c #6A9559",
"5X c #778248",
"6X c #5EA547",
"7X c #65A842",
"8X c #779766",
"9X c #6ED440",
"0X c #7CDF44",
"qX c #7AC050",
"wX c #7BD555",
"eX c #7FEC49",
"rX c #7FE156",
"tX c #82EC16",
"yX c #82FB3B",
"uX c #85BD42",
"iX c #84BB5E",
"pX c #80DC49",
"aX c #82D551",
"sX c #82E449",
"dX c #91E545",
"fX c #83C063",
"gX c #8ED261",
"hX c #90DE66",
/* pixels */
"N.N.S.S.S.D.B.I.I.C.F.G.D.P.D.T.I.V.Z.Z.Z.M.N.N.V.F.F.N.",
"N.F.S.N.S.B.T.[.U.].H.(.}.(.Y.L.U.[.(.U.A.T.V.N.V.V.F.G.",
"S.S.N.N.S.T.]._.=.%.] } -.~.`.K.-.-.-.m.`.L.D.F.N.M.N.N.",
"S.N.N.F.D.P.v.$.' 3.4.a.4.+.W.-. .@.| X.;.m.Y.B.V.M.G.N.",
"N.N.V.I.].n.%.4.i.9.r.w.8.a.3.O.5.1.6.o.@...v..XI.V.S.S.",
"N.N.N.A. X&.` u.w.w.XX=X@X8.q.>.>.j.0.k.p.3.[ Q.H.P.S.S.",
"N.N.F.{.^.o.>.%X4X=X2X;X$XoXOXoXr.w.OXL $X%Xq.u b.{.G.G.",
"N.N.T. Xs < e f f g h K XX#X1X1X,X1X+X4X1Xj > 7 ] ).Y.G.",
"N.D.].^.& O . . . .   . * 0 0 g g H h ! 5 2 ~ <X .W.].[.",
"S.D.(.&.=   O   . .     * ~ 2 O O . . . . O - 9.O.$.).).",
"S.P.{.=.= O . .       . h 8Xm . .     . .   + +Xa.' W. X",
"N.D.P.|.{ , & * O . . * ~ +X^ ; . . . .   O * w.<.3.*.sX",
"V.I.F.}.pX7X1.k F H ^ ^ -Xt.;X&Xr 3 + @ * 1 ~ >X,.6.../.",
"M.V.D.J.W.+.k.y.*X*XoX#X9.t.9.d.;X:X=XXX-X-X0.0.>.5.O.c.",
"M.V.R.b.' <.r.w.oXOXr.OXOXe.d.d.XX=XXXoXr.9.y.j.y.r.s.6X",
"N.F. X$.2.<.OX#XoXoXr.w.XX&X:XI J ~ XXoXs.q.>.t.e.#XL @X",
"D.].^.O.1.d.t.w.1XOXd.d.) ( Y D D N / OX9.r.g.t.-Xh = * ",
"P.n.| n T W W :X) / E W R D C Z C S I e.#X,X-XK 1 * . @ ",
"E.:.p b x Z Z D S S Y A Z x A c R 5X3X1X^ j : .       % ",
"tXtX#.z v V B B M C l x x A U W E w 3 * +   .   X     4 ",
"K.K.dXuXT E c S S J ( R ( W h.d.E @ .               . f ",
"`. XpXgXk.l ( :X3X) &X&X:X0.0.0.:X- .         X o   + Q ",
"^.[ 7 = O . . ; g K =XXXXX0.s.>.>Xe .     o       . + 4X",
"{ > & O     .   . O & >.a.+.[ *.z.i.O       o o   O = fX",
"wX, +     X   . . . & 7XeXQ.n._. XwX< .   X     . O 6 hX",
"wX` O   X X X     O = c.|.T.V.B.U.eX9 + .     . + & ` 0X",
" X!., . X X X   # + , 9X[.Z.C.I.I.'.i + + + + + = 7 Q.}.",
"(.sXd + .   X $ 4 H 7XeXL.M.N.N.B.yXx.8 8 e H ,XiXaX.XL."
};
