/* XPM */
static char *bd3bf8e139fc4d8d9f963d6cded67c4dSfLkRxSJOdOdAYMd[] = {
/* columns rows colors chars-per-pixel */
"28 28 219 2 ",
"   c #010301",
".  c #0A0002",
"X  c #000A00",
"o  c #080C02",
"O  c #020409",
"+  c #0A000D",
"@  c #0D0D0F",
"#  c #001300",
"$  c #001B00",
"%  c #0B1D02",
"&  c #121B07",
"*  c #002300",
"=  c #0B2300",
"-  c #002B00",
";  c #0C2B00",
":  c #172B06",
">  c #003600",
",  c #0D3601",
"<  c #0F3900",
"1  c #1C370C",
"2  c #183706",
"3  c #1F2815",
"4  c #183610",
"5  c #1F3818",
"6  c #223315",
"7  c #6D3E22",
"8  c #074D00",
"9  c #0F5C00",
"0  c #1B5900",
"q  c #254C02",
"w  c #275707",
"e  c #264518",
"r  c #2B531C",
"t  c #37551C",
"y  c #3B571C",
"u  c #2D6D00",
"i  c #257700",
"p  c #337303",
"a  c #364D26",
"s  c #2F5524",
"d  c #355424",
"f  c #3B5C27",
"g  c #3C5A35",
"h  c #2B4925",
"j  c #3F6F25",
"k  c #397521",
"l  c #3F6F31",
"z  c #4A5000",
"x  c #6D570C",
"c  c #724C1D",
"v  c #61581F",
"b  c #5B7B18",
"n  c #405828",
"m  c #485B2E",
"M  c #595F2D",
"N  c #575F30",
"B  c #6C4B2C",
"V  c #6B4525",
"C  c #724325",
"Z  c #754C23",
"A  c #744D2A",
"S  c #7B4E2D",
"D  c #695A2E",
"F  c #675529",
"G  c #72552E",
"H  c #78502D",
"J  c #774E30",
"K  c #665430",
"L  c #725936",
"P  c #755330",
"I  c #40612A",
"U  c #5A662B",
"Y  c #5E7324",
"T  c #496835",
"R  c #516A36",
"E  c #4F743B",
"W  c #4D7B30",
"Q  c #5C773C",
"!  c #547F3D",
"~  c #58763A",
"^  c #666A2E",
"/  c #63722D",
"(  c #676932",
")  c #647C3A",
"_  c #69783A",
"`  c #526B44",
"'  c #5B7D4A",
"]  c #5B7A42",
"[  c #647E51",
"{  c #318D00",
"}  c #399605",
"|  c #358210",
" . c #3B9412",
".. c #568A0E",
"X. c #4A8818",
"o. c #449414",
"O. c #439D15",
"+. c #479C18",
"@. c #48961A",
"#. c #509F1F",
"$. c #539519",
"%. c #49A509",
"&. c #45B905",
"*. c #5AB907",
"=. c #4DA016",
"-. c #51A710",
";. c #50A01B",
":. c #4FB315",
">. c #56B419",
",. c #4A8A28",
"<. c #548A2F",
"1. c #568A2A",
"2. c #4C912A",
"3. c #479425",
"4. c #52922E",
"5. c #51982C",
"6. c #4B8334",
"7. c #4D8B33",
"8. c #4D8639",
"9. c #4E8A3D",
"0. c #5C8734",
"q. c #548B34",
"w. c #5B8B36",
"e. c #54853B",
"r. c #5C863D",
"t. c #548B3B",
"y. c #598A3C",
"u. c #548533",
"i. c #57943C",
"p. c #5A903B",
"a. c #599637",
"s. c #64843D",
"d. c #618D3C",
"f. c #6B803D",
"g. c #649738",
"h. c #55B725",
"j. c #58A928",
"k. c #61AA2B",
"l. c #67BC2D",
"z. c #60A03F",
"x. c #738B0F",
"c. c #58CD0E",
"v. c #5BC11C",
"b. c #5BC918",
"n. c #57D117",
"m. c #63C21E",
"M. c #67DC18",
"N. c #73D713",
"B. c #56FD02",
"V. c #5CFE02",
"C. c #56FE0A",
"Z. c #5DFE0A",
"A. c #57F700",
"S. c #5EE314",
"D. c #5EF714",
"F. c #62F504",
"G. c #62FD04",
"H. c #63FD0A",
"J. c #6AFD0C",
"K. c #67F608",
"L. c #6AEC1D",
"P. c #68E718",
"I. c #72EF1F",
"U. c #66F313",
"Y. c #6BF516",
"T. c #64FD11",
"R. c #6BF915",
"E. c #65F51C",
"W. c #6BF519",
"Q. c #65FD1A",
"!. c #6CF81B",
"~. c #70F810",
"^. c #75F21E",
"/. c #6BCF21",
"(. c #66C726",
"). c #7CC820",
"_. c #67D825",
"`. c #62CF34",
"'. c #76D730",
"]. c #7CD938",
"[. c #76CA34",
"{. c #6CE625",
"}. c #72EE24",
"|. c #7CEB2C",
" X c #66F523",
".X c #6CFA22",
"XX c #68F52B",
"oX c #74F624",
"OX c #7CEC35",
"+X c #7AE938",
"@X c #5B8444",
"#X c #538D42",
"$X c #5B8B43",
"%X c #5E8B4C",
"&X c #568342",
"*X c #579143",
"=X c #5C9242",
"-X c #5D924D",
";X c #539148",
":X c #648343",
">X c #628C44",
",X c #63854C",
"<X c #638D4C",
"1X c #698A4A",
"2X c #738048",
"3X c #63944B",
"4X c #69904D",
"5X c #6D8B52",
"6X c #648B54",
"7X c #709457",
"8X c #738B57",
"9X c #64AD41",
"0X c #76BD45",
"qX c #7AC548",
"wX c #76D346",
"eX c #80F01F",
"rX c #81E03E",
"tX c #81DF40",
"yX c #84E647",
/* pixels */
"V.G.H.G.V.V.B.V.C.C.B.G.H.F.Z.C.H.G.V.V.V.C.Z.V.G.G.H.Z.",
"G.G.V.G.B.B.H.H.Q. X!.U.K.J.E..XL.L.L.U.Q.D.B.V.G.G.G.V.",
"V.V.H.B.G.G.Y.L./.(.>.>.P.}._.h.O.@.-.>.P.W.T.V.V.V.V.V.",
"B.J.A.H.H.W.M.%.$.X.1.o.*.N.;.,.i.,.a.X.%.c.U.H.V.V.V.G.",
"G.G.B.D..Xb.@.1.1.w.a.7.2.3.7.t.9.t.t.w.,.O.M.Y.T.Z.V.G.",
"G.G.Z.D._.O.q.$Xd.0.p.q.q.*Xe.-X$X&Xe.e.9.,.-.|.W.Z.G.V.",
"J.F.Y.c.i 8.%X&X<.<.u.t.t.9.y.&X:X4X%X-X-X6.X.[.W.V.V.G.",
"F.J.}.%.8 , d 6X>X>X<X<X-X<X<X@XR f d r r r < p }.V.V.V.",
"G.U.m.@.3X' 4 6 ` T g g a e e %       X   X   $ _.H.V.V.",
"F.I.#.q.e.; $ X X   X X   6 [ =   O O     o   $ &.K.G.V.",
"I.b.3.#X@X$   O       X   m 7Xf X           X $ &.H.K.Z.",
"OX:.3.#X&X;       X   X : :Xe.! =     X % % , | P.J.Z.V.",
"'.} 5.7.=X! 1 = % % 2 t 0.d.t.=XE ~ R R I W 0XyXE.V.Z.Z.",
"l.;.4.q.w.0.1X,X' ,X5X>Xw.u.#X8.$X$X>Xy.y.1.o.b.E.Z.Z.V.",
"9X2.q.t.d.0.e.e.$Xy.r.r.0.=Xy.$Xt.t.t.#X$Xy.<.o.c.!.Z.B.",
"e.6.%Xy.0.0.q.i.t.y.s.U Q s.:X@Xq.t.#X9.$Xy.e.2.%.}.K.V.",
"; $ T <X$X<.4.7.i.:XD G G K ] f.d.w.*X;X6.t.p.q.$.[.Y.G.",
"% X # 1 R 3X=X*Xy.~ F C A G F ( / ) ] ,X>X) ) _ / ..M.G.",
"&         : a ~ <X5X2X( v v Z J S S L K L G S Z c z *.K.",
"3     O     o o ; 1 t ~ _ ^ F V C 7 G B B C C c x x.N.~.",
"h X     O . . .     # E >Xs._ _ ( ] N N M M ^ b ).eXW.C.",
"l # X O     . . +   ; %Xq.t.0.r.:XQ 5X8X5X) t g.+X}. XXX",
"9XX X           O X r =Xu.p.y.$X@X<XE d : X   X ; 0 } `.",
"qX-     X     O O X 4.j.+.@.o.5.6.* X X X X       # *  .",
"yX8 X o     O     < +X}.L.S.S.+Xk.$ X o           X > wX",
"+X{ # X X X     X w |.F.B.V.B.W.v.* X     . .     # i +X",
"R.M.9 - $ # # # X u }.H.H.Z.B.D.{.> # o   O O   X - `.^.",
"B.oXyXqXz.I w q q k.|.V.B.B.B.Q.XXh.j 6 @ + + + X k OXK."
};
