/* XPM */
static char *_b16b1c232e34f18c35fd1e782222a5ecjB7hewurR5TOPU2[] = {
/* columns rows colors chars-per-pixel */
"32 32 197 2 ",
"   c #282712",
".  c #2B271E",
"X  c #2C2A1B",
"o  c #342A1D",
"O  c #3B2E1C",
"+  c #392814",
"@  c #3F3210",
"#  c #3F331C",
"$  c #252522",
"%  c #2A2622",
"&  c #2C2A24",
"*  c #262A29",
"=  c #292E2A",
"-  c #342C23",
";  c #3A2E21",
":  c #322F2A",
">  c #353224",
",  c #3C3324",
"<  c #3B3825",
"1  c #34322D",
"2  c #3C342C",
"3  c #272F32",
"4  c #282D30",
"5  c #3E2F34",
"6  c #2B343B",
"7  c #323333",
"8  c #3B3531",
"9  c #373A33",
"0  c #3C3A35",
"q  c #3A3539",
"w  c #3C3D3C",
"e  c #35373B",
"r  c #452D11",
"t  c #4D2F17",
"y  c #412E1F",
"u  c #492F1E",
"i  c #413117",
"p  c #44341B",
"a  c #4C351B",
"s  c #4C3A1C",
"d  c #4D3415",
"f  c #503313",
"g  c #533B1C",
"h  c #5D3D1E",
"j  c #613C12",
"k  c #433525",
"l  c #4A3523",
"z  c #443A27",
"x  c #4C3A24",
"c  c #43352A",
"v  c #4E3629",
"b  c #44392B",
"n  c #4C3B2C",
"m  c #543C23",
"M  c #5B3E23",
"N  c #523628",
"B  c #523D2D",
"V  c #593E2B",
"C  c #433733",
"Z  c #433B34",
"A  c #4B3C32",
"S  c #433B3B",
"D  c #4A3F3E",
"F  c #533D33",
"G  c #5B3E30",
"H  c #3F4032",
"J  c #53411E",
"K  c #59411F",
"L  c #63441E",
"P  c #76511D",
"I  c #43402D",
"U  c #4B412C",
"Y  c #554124",
"T  c #5A4225",
"R  c #5F4826",
"E  c #53422C",
"W  c #5C442B",
"Q  c #56482E",
"!  c #5D482D",
"~  c #454133",
"^  c #4B4232",
"/  c #44403B",
"(  c #4B403A",
")  c #534233",
"_  c #5B4532",
"`  c #5C4933",
"'  c #544439",
"]  c #5B453B",
"[  c #564939",
"{  c #644423",
"}  c #6A4623",
"|  c #644924",
" . c #6C4926",
".. c #62452B",
"X. c #644A2C",
"o. c #6B4B2C",
"O. c #734722",
"+. c #744A24",
"@. c #7C4E26",
"#. c #734C2C",
"$. c #7B4F2C",
"%. c #6E502E",
"&. c #7C5127",
"*. c #77532F",
"=. c #7C532D",
"-. c #614633",
";. c #634B34",
":. c #6D4C33",
">. c #624C3B",
",. c #6B4D39",
"<. c #744E33",
"1. c #7A4E33",
"2. c #744F3B",
"3. c #67513C",
"4. c #6D533D",
"5. c #6E5335",
"6. c #735234",
"7. c #7A5234",
"8. c #765834",
"9. c #74533B",
"0. c #79543A",
"q. c #7F5B3B",
"w. c #363B41",
"e. c #3B3C40",
"r. c #6E5442",
"t. c #665249",
"y. c #725742",
"u. c #854F2B",
"i. c #825A27",
"p. c #83542C",
"a. c #89532D",
"s. c #84582E",
"d. c #8C5A2F",
"f. c #835532",
"g. c #8B5632",
"h. c #845A34",
"j. c #8C5B34",
"k. c #835A38",
"l. c #8D5D3B",
"z. c #915C34",
"x. c #9A5D33",
"c. c #935E3A",
"v. c #8D6134",
"b. c #8E613C",
"n. c #956136",
"m. c #9B6335",
"M. c #94623B",
"N. c #9B643B",
"B. c #936C3C",
"V. c #9E693D",
"C. c #A36131",
"Z. c #A2663D",
"A. c #A36A3C",
"S. c #AA6B3D",
"D. c #AC6635",
"F. c #B86C3B",
"G. c #B4703F",
"H. c #8D6342",
"J. c #956542",
"K. c #9A6642",
"L. c #956944",
"P. c #9D6840",
"I. c #9C6A43",
"U. c #97684A",
"Y. c #9C6A49",
"T. c #A56B41",
"R. c #A56D45",
"E. c #A36C42",
"W. c #A86E46",
"Q. c #AB6D42",
"!. c #A56D4A",
"~. c #AA6F4A",
"^. c #B36E43",
"/. c #B06F49",
"(. c #AE7146",
"). c #AB7043",
"_. c #A77049",
"`. c #AD744B",
"'. c #AF784F",
"]. c #A37343",
"[. c #B17347",
"{. c #B17244",
"}. c #BA7644",
"|. c #BF7B47",
" X c #B3754A",
".X c #BA7549",
"XX c #B5794B",
"oX c #BB7B4C",
"OX c #A37150",
"+X c #AC7554",
"@X c #BD7E52",
"#X c #C17746",
"$X c #C07A47",
"%X c #C27C4C",
"&X c #C17951",
"*X c #C6804F",
"=X c #C38053",
/* pixels */
"Z  X&X#XXXo.A ~.[.W.Z.T.E.Z.h.l 9. X[. XG.[.(.z.X.`.|.oX%X X .% ",
"Z R.[.S.A.W C Q.T.V.N.m.M.N.f.z ,.Q.R.R.S.A.A.h._ E.{.)./.T...% ",
"S V.P.m.v.Y Z R.A.N.z.c.M.n.=.z ;.N.J.N.m.N.M.=.E K.Z.K.Z.N.Y $ ",
"0 M.M.j.f.m Z R.A.N.m.M.b.n.8.z -.n.l.c.z.l.l.#.B H.n.M.c.k.m $ ",
"8 z.k.&.=.a c Q.Z.N.x.M.c.z.$.c -.j.f.h.p.h.p.} E l.d.j.l.p.a $ ",
"S c.k.$.o.l 8 Z.Z.K.N.N.b.z.$.b _ p.$.$.&.6.#.| B h.u.8.u.@.a * ",
"S *.X.| m , w z.Z.M.c.n.k.d.*.b U +.o.o. . .{ g b 8.+.o.#. .i * ",
"4 f i p + . e f.m.k.d.h.=.@. .c b { M M K T g p k <. .X...j O * ",
"b k 2 2 > 1 C D n B / A n Z k 7 C 1 , , : p t : w O. .| h < = 0 ",
"+X+X_.Y.H.k.8.0.9._ A ) 4.y.6.>.;.` E n Z _ | U 5 { W x r + M x.",
"%X%XoXoX.X.X.X.X XM.n x ..G -.^ R ! G C 7 2 x < 1 c * * * - u.$X",
"%X%X%X}.{.Q.).).F.N.E z _ n B 9 b n G G Z 1 ( t.y.,.-.W 0 c M.oX",
"G.{.[.Q.T.].E.P.m.H.^ ^ ,.! .., ) T h K s @ %.P.M.M.M.j.V B Q.'.",
"].A.A.N.N.A.P.x.N.l.F m { M M ; n x z < > . 3.R.m.x.M.g.m ;.W.S.",
"7.7.#.o.o.o.o.X. .o.A m L g Y 8 z.M.b.k.7.N ,.x.M.n.b.f.B F $.@.",
"2 2 Z Z A C C A 0 A q B T J Y 2 L.B.n.n.z.v Z m D m N B 8 6 & . ",
"B J.A.W.^.[._.R.~.T.n U { h m 9 K.N.N.c.l.n A 0.2.,.,.>.] -.B > ",
"y.XX*X@X%X*X@X=X%X^.-.Z x s a k E.Z.N.x.z.V >.OXP.N.b.j.h.p.o.l ",
"0.oX%XoX$X}.[..X~.Z.[ 7 > 8 2 S !.N.N.Z.g.g ;.N.h.s.p.p.=.p.o.k ",
"0.@XoX[.{.{.T.(.XXm.E x :.2.-.Z Y.K.N.K.j.T ;.c.7.a.a.h.p.g.<.B ",
"7.XX.XA.A.S.R.).).N.] ' *.P L ~ N.N.m.N.l.T _ M.h.j.z.l.z.j.7.B ",
":.S.T.P.N.V.P.E.E.x.N k W R Y z N.V.N.N.M.T E l.h.s.f.k.k.n.6.E ",
"n 6.6.0.6.6.6.6.r.o.b 1 ( D Z 7 o.6.*.1.2.z b #. . . .X. .O.{ l ",
"e.A k Z c c Z b A l w A J.'.0.C Z A ~ n F 0 e.B Z c Z 0 2 n Z w ",
"L.N.Z.x.8.:.m.Y.Q.x.` ~ R.D.5.0 K.U.K.K.K.K.P.P.N.I.E.K.K.Y.L.U.",
"h.c.Y.M.6.2.Q.P.c.M.W b b.x...Z j.j.j.j.j.j.j.j.j.c.z.z.g.j.g.g.",
"{ } X.| E :.m.p.9. .a c W <.V : } } L L { { { | | | ..{ | L | | ",
"1 y # , c ] 2.T m # F ,.x ; c p ) n n c , - - X % - - o o o - - ",
"6 ,.0.0.9.4.q.6.o.~ y.K.6.9 ) L.R.I.P.H.j.7.7.7.0.0.9.9.9.4.] z ",
"~ I.XX).A.B.m.N.f.z 5.C.=.k ,.{.Q.T.T.E.P.V.K.Y.V.N.n.m.m.M.8.a ",
"C k.z.g.p.=.&.7.g o 4.c.} # ..M.g.a.p.p.p.=.&.p.7.7.8.=.1.0...o ",
"e L Y ) M g s p > - _ ! v - a 2.X.T g m m m m s s s s g f f i   "
};
